<?xml version="1.0" encoding="UTF-8"?>
<svg xmlns="http://www.w3.org/2000/svg" version="1.1" xmlns:xlink="http://www.w3.org/1999/xlink" viewBox="0 0 680 680">
  <defs>
    <style>
      .cls-1 {
        fill: none;
      }

      .cls-2 {
        clip-path: url(#clippath);
      }
    </style>
    <clipPath id="clippath">
      <rect class="cls-1" x="-115.5" y="-225.6" width="1024" height="1024"/>
    </clipPath>
  </defs>
  <!-- Generator: Adobe Illustrator 28.6.0, SVG Export Plug-In . SVG Version: 1.2.0 Build 709)  -->
  <g>
    <g id="BG">
      <g class="cls-2">
        <path d="M513.8,85.3c0-15.4-12.5-27.9-27.9-27.9h-178.7c-15.4,0-27.9,12.5-27.9,27.9v55.9c0,15.4-12.5,27.9-27.9,27.9h-55.9c-15.4,0-27.9,12.5-27.9,27.9v167.5c0,15.4-12.5,27.9-27.9,27.9h-55.8c-15.4,0-27.9,12.5-27.9,27.9v67c0,15.4,12.5,27.9,27.9,27.9h55.9c15.4,0,27.9,12.5,27.9,27.9v55.8c0,15.4,12.5,27.9,27.9,27.9h67c15.4,0,27.9-12.5,27.9-27.9v-55.8c0-15.4,12.5-27.9,27.9-27.9h167.5c15.4,0,27.9-12.5,27.9-27.9v-55.8c0-15.4,12.5-27.9,27.9-27.9h55.8c15.4,0,27.9-12.5,27.9-27.9v-178.7c0-15.4-12.5-27.9-27.9-27.9h-55.8c-15.4,0-27.9-12.5-27.9-27.9v-55.9h0ZM502.6,280.8v83.8c0,15.4-12.5,27.9-27.9,27.9h-156.4c-15.4,0-27.9-12.5-27.9-27.9v-156.4c0-15.4,12.5-27.9,27.9-27.9h156.4c15.4,0,27.9,12.5,27.9,27.9v72.6Z"/>
      </g>
    </g>
  </g>
</svg>